<svg width="1200" height="630" viewBox="0 0 1200 630" fill="none" xmlns="http://www.w3.org/2000/svg">
<rect width="1200" height="630" fill="white"/>
<path d="M814.826 402C802.026 402 791.892 400.067 784.426 396.2C777.092 392.467 773.426 387.4 773.426 381C773.426 378.067 774.226 375.467 775.826 373.2C777.426 371.067 779.492 369.267 782.026 367.8C784.559 366.333 787.159 365.2 789.826 364.4C786.759 363.333 784.292 361.667 782.426 359.4C780.559 357.133 779.626 354.267 779.626 350.8C779.626 348.133 780.292 345.467 781.626 342.8C782.959 340 784.892 337.267 787.426 334.6C789.959 331.8 792.892 329.2 796.226 326.8L800.226 328.4C799.292 330 798.226 331.867 797.026 334C795.826 336.133 795.226 338.267 795.226 340.4C795.226 342.933 796.026 344.867 797.626 346.2C799.359 347.533 802.626 348.2 807.426 348.2H837.426C846.626 348.2 853.826 350 859.026 353.6C864.226 357.2 866.826 362.733 866.826 370.2C866.826 376.333 864.826 381.8 860.826 386.6C856.959 391.4 851.159 395.133 843.426 397.8C835.692 400.6 826.159 402 814.826 402ZM815.426 386.8C826.092 386.8 834.292 385.533 840.026 383C845.759 380.6 848.626 377.2 848.626 372.8C848.626 369.867 847.492 367.733 845.226 366.4C842.959 365.2 839.492 364.6 834.826 364.6H794.826C793.626 365.933 792.426 367.4 791.226 369C790.026 370.733 789.426 372.667 789.426 374.8C789.426 378.4 791.559 381.267 795.826 383.4C800.092 385.667 806.626 386.8 815.426 386.8ZM819.226 333.4C811.492 333.4 804.692 331.933 798.826 329C792.959 326.067 788.359 321.933 785.026 316.6C781.692 311.267 780.026 305.267 780.026 298.6C780.026 291.8 781.692 285.8 785.026 280.6C788.359 275.267 792.959 271.133 798.826 268.2C804.692 265.267 811.492 263.8 819.226 263.8C826.959 263.8 833.759 265.267 839.626 268.2C845.626 271.133 850.226 275.267 853.426 280.6C856.759 285.8 858.426 291.8 858.426 298.6C858.426 305.267 856.759 311.267 853.426 316.6C850.226 321.933 845.626 326.067 839.626 329C833.759 331.933 826.959 333.4 819.226 333.4ZM819.226 318.6C824.826 318.6 829.559 316.867 833.426 313.4C837.426 309.933 839.426 305 839.426 298.6C839.426 292.2 837.426 287.267 833.426 283.8C829.559 280.333 824.826 278.6 819.226 278.6C813.626 278.6 808.826 280.333 804.826 283.8C800.959 287.267 799.026 292.2 799.026 298.6C799.026 305 800.959 309.933 804.826 313.4C808.826 316.867 813.626 318.6 819.226 318.6ZM861.426 250.4L841.226 272.4L835.826 268L841.426 243.4L861.426 250.4Z" fill="black"/>
<path d="M757.191 362.8H737.191V300.8C737.191 294.8 735.791 289.866 732.991 286C730.324 282.133 725.057 280.2 717.191 280.2C711.324 280.2 706.657 281.466 703.191 284C699.724 286.4 697.191 289.733 695.591 294C694.124 298.133 693.391 302.866 693.391 308.2L691.991 299.4C692.657 293.4 694.257 287.666 696.791 282.2C699.457 276.733 703.191 272.333 707.991 269C712.924 265.533 719.124 263.8 726.591 263.8C735.924 263.8 743.324 266.533 748.791 272C754.391 277.466 757.191 285.266 757.191 295.4V362.8ZM693.391 362.8H673.391V265.8H693.391V362.8Z" fill="black"/>
<path d="M648.664 250.8H628.664V228.8H648.664V250.8ZM648.664 362.8H628.664V265.8H648.664V362.8Z" fill="black"/>
<path d="M603.938 362.8H583.938V228.8H603.938V362.8Z" fill="black"/>
<path d="M524.977 364.8C517.51 364.8 511.51 363.067 506.977 359.6C502.443 356.133 499.043 351.733 496.777 346.4C494.643 340.933 493.243 335.2 492.577 329.2L493.977 320.4C493.977 325.733 494.71 330.533 496.177 334.8C497.777 338.933 500.31 342.267 503.777 344.8C507.377 347.2 512.043 348.4 517.777 348.4C525.11 348.4 531.31 345.6 536.377 340C541.443 334.4 543.977 325.8 543.977 314.2C543.977 302.467 541.443 293.867 536.377 288.4C531.31 282.8 525.11 280 517.777 280C512.043 280 507.377 281.2 503.777 283.6C500.31 286 497.777 289.333 496.177 293.6C494.71 297.733 493.977 302.467 493.977 307.8L492.577 299C493.243 293 494.71 287.267 496.977 281.8C499.243 276.333 502.643 271.933 507.177 268.6C511.71 265.133 517.71 263.4 525.177 263.4C533.177 263.4 540.11 265.533 545.977 269.8C551.843 273.933 556.377 279.8 559.577 287.4C562.777 294.867 564.377 303.8 564.377 314.2C564.377 324.333 562.71 333.267 559.377 341C556.177 348.6 551.643 354.467 545.777 358.6C540.043 362.733 533.11 364.8 524.977 364.8ZM493.977 400H473.977V265.8H493.977V400Z" fill="black"/>
<path d="M455.241 362.8H442.641C439.308 362.8 436.308 362.2 433.641 361C430.975 359.8 428.841 357.866 427.241 355.2C425.641 352.4 424.841 348.666 424.841 344V305.2L424.441 302.6C424.441 296.6 423.041 291.6 420.241 287.6C417.575 283.466 412.241 281.4 404.241 281.4C397.575 281.4 391.841 283.133 387.041 286.6C382.375 290.066 378.775 294.466 376.241 299.8L363.441 285.6C365.708 282.266 368.841 278.933 372.841 275.6C376.841 272.266 381.641 269.466 387.241 267.2C392.975 264.933 399.375 263.8 406.441 263.8C418.441 263.8 427.641 267.133 434.041 273.8C440.575 280.333 443.841 289.533 443.841 301.4V339.4C443.841 341.533 444.241 343.066 445.041 344C445.975 344.8 447.308 345.2 449.041 345.2H455.241V362.8ZM391.641 364.8C383.641 364.8 377.375 362.733 372.841 358.6C368.308 354.333 366.041 348.866 366.041 342.2C366.041 335.533 368.241 330 372.641 325.6C377.175 321.2 383.108 317.4 390.441 314.2L427.441 298.2L430.041 311L398.241 325.8C393.841 327.933 390.641 330 388.641 332C386.641 334 385.641 336.4 385.641 339.2C385.641 342.133 386.708 344.466 388.841 346.2C390.975 347.933 394.175 348.8 398.441 348.8C402.308 348.8 405.841 348.266 409.041 347.2C412.375 346 415.175 344.333 417.441 342.2C419.841 340.066 421.641 337.6 422.841 334.8C424.175 332 424.841 328.866 424.841 325.4L425.441 335C424.641 339.4 422.908 343.933 420.241 348.6C417.708 353.133 414.108 357 409.441 360.2C404.775 363.266 398.841 364.8 391.641 364.8Z" fill="black"/>
<path d="M303 364.8C294.6 364.8 286.533 363.733 278.8 361.6C271.2 359.333 264.467 355.733 258.6 350.8C252.733 345.867 248.2 339.467 245 331.6L259.8 317.8C261.933 324.733 265.4 330.267 270.2 334.4C275 338.533 280.333 341.533 286.2 343.4C292.2 345.267 297.933 346.2 303.4 346.2C308.067 346.2 312.333 345.6 316.2 344.4C320.2 343.067 323.333 341.067 325.6 338.4C328 335.6 329.2 332 329.2 327.6C329.2 322.8 328 319.067 325.6 316.4C323.2 313.733 319.867 311.6 315.6 310C311.333 308.4 306.267 306.933 300.4 305.6L287.8 303C283.267 301.933 278.733 300.6 274.2 299C269.667 297.267 265.467 295 261.6 292.2C257.867 289.267 254.867 285.667 252.6 281.4C250.333 277 249.2 271.6 249.2 265.2C249.2 256.8 251.333 249.8 255.6 244.2C259.867 238.6 265.467 234.333 272.4 231.4C279.467 228.467 287 227 295 227C307.133 227 317.8 229.533 327 234.6C336.333 239.667 343.2 247.067 347.6 256.8L331.6 270.6C328.133 261.8 323.133 255.467 316.6 251.6C310.067 247.733 302.6 245.8 294.2 245.8C289.533 245.8 285.4 246.533 281.8 248C278.333 249.467 275.533 251.533 273.4 254.2C271.267 256.867 270.2 260.067 270.2 263.8C270.2 270.067 272.4 274.667 276.8 277.6C281.333 280.533 287.267 282.933 294.6 284.8L309.4 288.4C314.333 289.6 319.2 291.067 324 292.8C328.8 294.533 333.133 296.867 337 299.8C340.867 302.6 343.933 306.2 346.2 310.6C348.467 315 349.6 320.467 349.6 327C349.6 334.867 347.6 341.667 343.6 347.4C339.6 353 334.067 357.333 327 360.4C320.067 363.333 312.067 364.8 303 364.8Z" fill="black"/>
<path d="M920.028 314.456L900.066 334.609C899.251 335.432 898.301 335.826 897.214 335.792C896.128 335.758 895.177 335.329 894.363 334.507C893.616 333.684 893.225 332.724 893.191 331.627C893.158 330.531 893.548 329.571 894.363 328.748L921.25 301.603C921.657 301.191 922.099 300.9 922.574 300.729C923.049 300.557 923.558 300.472 924.101 300.472C924.645 300.472 925.154 300.557 925.629 300.729C926.104 300.9 926.546 301.191 926.953 301.603L953.84 328.748C954.587 329.502 954.961 330.445 954.961 331.576C954.961 332.707 954.587 333.684 953.84 334.507C953.026 335.329 952.058 335.74 950.938 335.74C949.817 335.74 948.85 335.329 948.035 334.507L928.175 314.456V360.418C928.175 361.584 927.785 362.56 927.004 363.349C926.223 364.137 925.256 364.531 924.101 364.531C922.947 364.531 921.98 364.137 921.199 363.349C920.418 362.56 920.028 361.584 920.028 360.418V314.456Z" fill="black"/>
<path fill-rule="evenodd" clip-rule="evenodd" d="M923.689 281.421L949.715 307.446C951.081 308.813 953.297 308.813 954.664 307.446C956.031 306.079 956.031 303.863 954.664 302.497L927.579 275.411C925.431 273.263 921.948 273.263 919.8 275.411L892.715 302.497C891.348 303.863 891.348 306.079 892.715 307.446C894.081 308.813 896.297 308.813 897.664 307.446L923.689 281.421Z" fill="black"/>
</svg>
