<svg width="1200" height="630" viewBox="0 0 1200 630" fill="none" xmlns="http://www.w3.org/2000/svg">
<rect width="1200" height="630" fill="black"/>
<path d="M591.068 304.219L543.825 351.916C541.897 353.863 539.647 354.796 537.076 354.715C534.505 354.634 532.256 353.62 530.327 351.673C528.56 349.726 527.636 347.455 527.556 344.859C527.475 342.263 528.399 339.992 530.327 338.045L593.96 273.8C594.924 272.827 595.969 272.137 597.094 271.732C598.219 271.326 599.424 271.124 600.709 271.124C601.995 271.124 603.2 271.326 604.325 271.732C605.45 272.137 606.494 272.827 607.458 273.8L671.091 338.045C672.859 339.83 673.742 342.06 673.742 344.737C673.742 347.414 672.859 349.726 671.091 351.673C669.163 353.62 666.873 354.593 664.222 354.593C661.57 354.593 659.28 353.62 657.352 351.673L610.351 304.219V412.997C610.351 415.755 609.427 418.067 607.579 419.933C605.731 421.798 603.441 422.731 600.709 422.731C597.978 422.731 595.688 421.798 593.84 419.933C591.992 418.067 591.068 415.755 591.068 412.997V304.219Z" fill="white"/>
<path fill-rule="evenodd" clip-rule="evenodd" d="M599.733 226.037L661.326 287.63C664.561 290.865 669.806 290.865 673.041 287.63C676.275 284.395 676.275 279.15 673.041 275.916L608.938 211.812C603.854 206.729 595.612 206.729 590.529 211.812L526.426 275.916C523.191 279.15 523.191 284.395 526.426 287.63C529.661 290.865 534.906 290.865 538.141 287.63L599.733 226.037Z" fill="white"/>
</svg>
